<svg width="27" height="27" viewBox="0 0 27 27" fill="none" xmlns="http://www.w3.org/2000/svg">
<path d="M10.125 24C11.1605 24 12 23.1605 12 22.125C12 21.0895 11.1605 20.25 10.125 20.25C9.08947 20.25 8.25 21.0895 8.25 22.125C8.25 23.1605 9.08947 24 10.125 24Z" fill="#006DAB"/>
<path d="M19.875 24C20.9105 24 21.75 23.1605 21.75 22.125C21.75 21.0895 20.9105 20.25 19.875 20.25C18.8395 20.25 18 21.0895 18 22.125C18 23.1605 18.8395 24 19.875 24Z" fill="#006DAB"/>
<path d="M24.825 4.79252C24.7551 4.70176 24.6654 4.62821 24.5627 4.5775C24.46 4.5268 24.347 4.50029 24.2325 4.50002H6.90749L6.56999 3.42752C6.53292 3.31236 6.46854 3.20788 6.38234 3.123C6.29615 3.03811 6.1907 2.97533 6.07499 2.94002L2.99999 1.99502C2.90544 1.96596 2.80609 1.95582 2.70762 1.96516C2.60914 1.9745 2.51347 2.00314 2.42607 2.04946C2.24955 2.14299 2.11742 2.30281 2.05874 2.49377C2.00006 2.68473 2.01964 2.89117 2.11318 3.06769C2.20671 3.24421 2.36654 3.37634 2.55749 3.43502L5.24999 4.26002L8.68499 15.1125L7.46249 16.1175L7.36499 16.215C7.06266 16.5651 6.89138 17.0093 6.88043 17.4718C6.86949 17.9342 7.01957 18.386 7.30499 18.75C7.50941 18.9986 7.76917 19.1959 8.06349 19.3262C8.35782 19.4564 8.67853 19.5159 8.99999 19.5H21.5175C21.7164 19.5 21.9072 19.421 22.0478 19.2803C22.1885 19.1397 22.2675 18.9489 22.2675 18.75C22.2675 18.5511 22.1885 18.3603 22.0478 18.2197C21.9072 18.079 21.7164 18 21.5175 18H8.87999C8.79362 17.9971 8.70948 17.9719 8.63568 17.9269C8.56189 17.882 8.50093 17.8187 8.45871 17.7433C8.41649 17.6679 8.39442 17.5829 8.39465 17.4965C8.39487 17.4101 8.41738 17.3252 8.45999 17.25L10.2675 15.75H21.84C22.0113 15.755 22.1792 15.7012 22.3156 15.5975C22.4521 15.4937 22.5489 15.3464 22.59 15.18L24.99 5.43002C25.0128 5.31821 25.0098 5.20267 24.9812 5.09219C24.9526 4.98172 24.8992 4.87923 24.825 4.79252Z" fill="#006DAB"/>
</svg>
