<svg width="29" height="28" viewBox="0 0 29 28" fill="none" xmlns="http://www.w3.org/2000/svg">
<path d="M25.3743 11.8771C25.5158 12.6349 25.5928 13.4273 25.5928 14.2541C25.5928 20.7218 21.2642 25.3206 14.7265 25.3206C13.2397 25.3211 11.7674 25.0285 10.3937 24.4598C9.02006 23.891 7.77191 23.0572 6.7206 22.0059C5.6693 20.9546 4.83544 19.7064 4.26669 18.3327C3.69794 16.9591 3.40543 15.4868 3.40588 14C3.40543 12.5132 3.69794 11.0409 4.26669 9.66726C4.83544 8.29357 5.6693 7.04542 6.7206 5.99411C7.77191 4.94281 9.02006 4.10896 10.3937 3.5402C11.7674 2.97145 13.2397 2.67894 14.7265 2.6794C17.7832 2.6794 20.3373 3.8041 22.2969 5.6303L19.1057 8.82155V8.8135C17.9177 7.6819 16.4101 7.10115 14.7265 7.10115C10.9913 7.10115 7.95529 10.2567 7.95529 13.9931C7.95529 17.7283 10.9913 20.8908 14.7265 20.8908C18.1155 20.8908 20.4224 18.9531 20.8962 16.2919H14.7265V11.8771H25.3755H25.3743Z" fill="white"/>
</svg>
