<svg width="21" height="22" viewBox="0 0 21 22" fill="none" xmlns="http://www.w3.org/2000/svg">
<path d="M10.4641 7.60496C8.59642 7.60496 7.07225 9.19267 7.07225 11.1382C7.07225 13.0837 8.59642 14.6715 10.4641 14.6715C12.3318 14.6715 13.856 13.0837 13.856 11.1382C13.856 9.19267 12.3318 7.60496 10.4641 7.60496ZM20.6371 11.1382C20.6371 9.67507 20.6499 8.2252 20.571 6.76472C20.4921 5.06833 20.1206 3.56279 18.9298 2.32231C17.7364 1.07918 16.2936 0.694841 14.6651 0.612673C13.2605 0.530504 11.8687 0.543757 10.4666 0.543757C9.06207 0.543757 7.67021 0.530504 6.26818 0.612673C4.63968 0.694841 3.19439 1.08183 2.00355 2.32231C0.810162 3.56544 0.441205 5.06833 0.362325 6.76472C0.283444 8.22785 0.296167 9.67773 0.296167 11.1382C0.296167 12.5987 0.283444 14.0512 0.362325 15.5117C0.441205 17.2081 0.812706 18.7136 2.00355 19.9541C3.19693 21.1972 4.63968 21.5816 6.26818 21.6637C7.67276 21.7459 9.06461 21.7327 10.4666 21.7327C11.8712 21.7327 13.2631 21.7459 14.6651 21.6637C16.2936 21.5816 17.7389 21.1946 18.9298 19.9541C20.1231 18.711 20.4921 17.2081 20.571 15.5117C20.6524 14.0512 20.6371 12.6013 20.6371 11.1382ZM10.4641 16.5746C7.57606 16.5746 5.24528 14.1466 5.24528 11.1382C5.24528 8.12978 7.57606 5.70183 10.4641 5.70183C13.3521 5.70183 15.6829 8.12978 15.6829 11.1382C15.6829 14.1466 13.3521 16.5746 10.4641 16.5746ZM15.8967 6.74881C15.2224 6.74881 14.6778 6.18158 14.6778 5.47917C14.6778 4.77677 15.2224 4.20954 15.8967 4.20954C16.571 4.20954 17.1155 4.77677 17.1155 5.47917C17.1157 5.64596 17.0843 5.81116 17.0231 5.96529C16.962 6.11943 16.8722 6.25947 16.759 6.37741C16.6457 6.49535 16.5113 6.58886 16.3633 6.65259C16.2154 6.71632 16.0568 6.74902 15.8967 6.74881Z" fill="white"/>
</svg>
