<svg width="155" height="35" viewBox="0 0 155 35" fill="none" xmlns="http://www.w3.org/2000/svg">
<path d="M14.884 27.38C12.8573 27.38 10.97 27.0507 9.222 26.392C7.49933 25.708 5.992 24.758 4.7 23.542C3.43333 22.3007 2.44533 20.844 1.736 19.172C1.02667 17.5 0.672 15.676 0.672 13.7C0.672 11.724 1.02667 9.9 1.736 8.228C2.44533 6.556 3.446 5.112 4.738 3.896C6.03 2.65467 7.53733 1.70467 9.26 1.046C10.9827 0.361999 12.87 0.0199986 14.922 0.0199986C17.1007 0.0199986 19.0893 0.399999 20.888 1.16C22.6867 1.89467 24.2067 2.99667 25.448 4.466L22.256 7.468C21.2933 6.42933 20.2167 5.65667 19.026 5.15C17.8353 4.618 16.5433 4.352 15.15 4.352C13.7567 4.352 12.4773 4.58 11.312 5.036C10.172 5.492 9.17133 6.138 8.31 6.974C7.474 7.81 6.81533 8.798 6.334 9.938C5.878 11.078 5.65 12.332 5.65 13.7C5.65 15.068 5.878 16.322 6.334 17.462C6.81533 18.602 7.474 19.59 8.31 20.426C9.17133 21.262 10.172 21.908 11.312 22.364C12.4773 22.82 13.7567 23.048 15.15 23.048C16.5433 23.048 17.8353 22.7947 19.026 22.288C20.2167 21.756 21.2933 20.958 22.256 19.894L25.448 22.934C24.2067 24.378 22.6867 25.48 20.888 26.24C19.0893 27 17.088 27.38 14.884 27.38ZM42.0418 27V22.896L41.7758 22.022V14.84C41.7758 13.4467 41.3578 12.37 40.5218 11.61C39.6858 10.8247 38.4192 10.432 36.7218 10.432C35.5818 10.432 34.4545 10.6093 33.3398 10.964C32.2505 11.3187 31.3258 11.8127 30.5658 12.446L28.7038 8.988C29.7932 8.152 31.0852 7.53133 32.5798 7.126C34.0998 6.69533 35.6705 6.48 37.2918 6.48C40.2305 6.48 42.4978 7.18933 44.0938 8.608C45.7152 10.0013 46.5258 12.1673 46.5258 15.106V27H42.0418ZM35.6578 27.266C34.1378 27.266 32.8078 27.0127 31.6678 26.506C30.5278 25.974 29.6412 25.252 29.0078 24.34C28.3998 23.4027 28.0958 22.3513 28.0958 21.186C28.0958 20.046 28.3618 19.02 28.8938 18.108C29.4512 17.196 30.3505 16.474 31.5918 15.942C32.8332 15.41 34.4798 15.144 36.5318 15.144H42.4218V18.298H36.8738C35.2525 18.298 34.1632 18.564 33.6058 19.096C33.0485 19.6027 32.7698 20.236 32.7698 20.996C32.7698 21.8573 33.1118 22.5413 33.7958 23.048C34.4798 23.5547 35.4298 23.808 36.6458 23.808C37.8112 23.808 38.8498 23.542 39.7618 23.01C40.6992 22.478 41.3705 21.6927 41.7758 20.654L42.5738 23.504C42.1178 24.6947 41.2945 25.6193 40.1038 26.278C38.9385 26.9367 37.4565 27.266 35.6578 27.266ZM78.2339 6.48C79.8552 6.48 81.2865 6.79667 82.5279 7.43C83.7945 8.06333 84.7825 9.03867 85.4919 10.356C86.2012 11.648 86.5559 13.32 86.5559 15.372V27H81.8059V15.98C81.8059 14.1813 81.4132 12.8387 80.6279 11.952C79.8425 11.0653 78.7152 10.622 77.2459 10.622C76.2072 10.622 75.2825 10.85 74.4719 11.306C73.6865 11.762 73.0659 12.4333 72.6099 13.32C72.1792 14.2067 71.9639 15.334 71.9639 16.702V27H67.2139V15.98C67.2139 14.1813 66.8212 12.8387 66.0359 11.952C65.2505 11.0653 64.1232 10.622 62.6539 10.622C61.6152 10.622 60.6905 10.85 59.8799 11.306C59.0945 11.762 58.4739 12.4333 58.0179 13.32C57.5872 14.2067 57.3719 15.334 57.3719 16.702V27H52.6219V6.708H57.1439V12.104L56.3459 10.508C57.0299 9.19067 58.0179 8.19 59.3099 7.506C60.6272 6.822 62.1219 6.48 63.7939 6.48C65.6939 6.48 67.3405 6.94867 68.7339 7.886C70.1525 8.82333 71.0899 10.242 71.5459 12.142L69.6839 11.496C70.3425 9.976 71.4319 8.76 72.9519 7.848C74.4719 6.936 76.2325 6.48 78.2339 6.48ZM103.874 27.266C102.227 27.266 100.72 26.886 99.3518 26.126C98.0091 25.366 96.9324 24.226 96.1218 22.706C95.3364 21.1607 94.9438 19.21 94.9438 16.854C94.9438 14.4727 95.3238 12.522 96.0838 11.002C96.8691 9.482 97.9331 8.35467 99.2758 7.62C100.618 6.86 102.151 6.48 103.874 6.48C105.875 6.48 107.636 6.91067 109.156 7.772C110.701 8.63333 111.917 9.83667 112.804 11.382C113.716 12.9273 114.172 14.7513 114.172 16.854C114.172 18.9567 113.716 20.7933 112.804 22.364C111.917 23.9093 110.701 25.1127 109.156 25.974C107.636 26.8353 105.875 27.266 103.874 27.266ZM92.6258 34.372V6.708H97.1478V11.496L96.9958 16.892L97.3758 22.288V34.372H92.6258ZM103.342 23.2C104.482 23.2 105.495 22.9467 106.382 22.44C107.294 21.9333 108.016 21.1987 108.548 20.236C109.08 19.2733 109.346 18.146 109.346 16.854C109.346 15.5367 109.08 14.4093 108.548 13.472C108.016 12.5093 107.294 11.7747 106.382 11.268C105.495 10.7613 104.482 10.508 103.342 10.508C102.202 10.508 101.176 10.7613 100.264 11.268C99.3518 11.7747 98.6298 12.5093 98.0978 13.472C97.5658 14.4093 97.2998 15.5367 97.2998 16.854C97.2998 18.146 97.5658 19.2733 98.0978 20.236C98.6298 21.1987 99.3518 21.9333 100.264 22.44C101.176 22.9467 102.202 23.2 103.342 23.2ZM128.215 27.266C125.96 27.266 123.984 26.8227 122.287 25.936C120.615 25.024 119.31 23.7827 118.373 22.212C117.461 20.6413 117.005 18.8553 117.005 16.854C117.005 14.8273 117.448 13.0413 118.335 11.496C119.247 9.92533 120.488 8.69667 122.059 7.81C123.655 6.92333 125.466 6.48 127.493 6.48C129.469 6.48 131.229 6.91067 132.775 7.772C134.32 8.63333 135.536 9.84933 136.423 11.42C137.309 12.9907 137.753 14.84 137.753 16.968C137.753 17.1707 137.74 17.3987 137.715 17.652C137.715 17.9053 137.702 18.146 137.677 18.374H120.767V15.22H135.169L133.307 16.208C133.332 15.0427 133.091 14.0167 132.585 13.13C132.078 12.2433 131.381 11.5467 130.495 11.04C129.633 10.5333 128.633 10.28 127.493 10.28C126.327 10.28 125.301 10.5333 124.415 11.04C123.553 11.5467 122.869 12.256 122.363 13.168C121.881 14.0547 121.641 15.106 121.641 16.322V17.082C121.641 18.298 121.919 19.3747 122.477 20.312C123.034 21.2493 123.819 21.9713 124.833 22.478C125.846 22.9847 127.011 23.238 128.329 23.238C129.469 23.238 130.495 23.0607 131.407 22.706C132.319 22.3513 133.129 21.794 133.839 21.034L136.385 23.96C135.473 25.024 134.32 25.8473 132.927 26.43C131.559 26.9873 129.988 27.266 128.215 27.266ZM142.315 27V6.708H146.837V12.294L146.305 10.66C146.913 9.292 147.863 8.25333 149.155 7.544C150.473 6.83467 152.107 6.48 154.057 6.48V11.002C153.855 10.9513 153.665 10.926 153.487 10.926C153.31 10.9007 153.133 10.888 152.955 10.888C151.157 10.888 149.725 11.42 148.661 12.484C147.597 13.5227 147.065 15.0807 147.065 17.158V27H142.315Z" fill="#006DAB"/>
</svg>
